<?xml version="1.0" encoding="UTF-8"?>
<svg version="1.1" xmlns="http://www.w3.org/2000/svg" width="225" height="225">
<path d="M0 0 C74.25 0 148.5 0 225 0 C225 74.25 225 148.5 225 225 C150.75 225 76.5 225 0 225 C0 150.75 0 76.5 0 0 Z " fill="#87C3A8" transform="translate(0,0)"/>
<path d="M0 0 C0.69225174 -0.00282738 1.38450348 -0.00565475 2.09773254 -0.00856781 C5.74517175 -0.02341723 9.3925727 -0.0327423 13.04003906 -0.03710938 C16.80054712 -0.04264345 20.56070209 -0.06681365 24.32109833 -0.09508133 C27.22584091 -0.11366999 30.13049654 -0.11891077 33.03529358 -0.12044525 C34.42279539 -0.12346947 35.81029576 -0.13149028 37.19773865 -0.14463043 C39.12849775 -0.16164606 41.0594059 -0.15797238 42.99023438 -0.15332031 C44.08734741 -0.15696594 45.18446045 -0.16061157 46.31481934 -0.16436768 C49.03125 0.203125 49.03125 0.203125 50.88356018 1.29818726 C52.63179877 4.199917 52.4207571 6.67079221 52.43530273 10.03857422 C52.44216599 10.73014114 52.44902924 11.42170807 52.45610046 12.13423157 C52.474428 14.42563328 52.47051777 16.71635299 52.46484375 19.0078125 C52.4694076 20.6090619 52.47471378 22.21030934 52.48072815 23.81155396 C52.48967452 27.17588218 52.48722463 30.53997335 52.47729492 33.90429688 C52.46589064 38.18211295 52.48587572 42.45909301 52.51521206 46.73679924 C52.53372467 50.05033449 52.53325048 53.36367581 52.52757454 56.67724991 C52.52742268 58.2518543 52.53335298 59.826473 52.54586601 61.40102768 C52.64862603 76.47188178 49.97602824 91.94563881 39.03125 103.203125 C31.95666598 108.4215816 25.56585981 110.51436993 16.73095703 110.43017578 C15.92053452 110.43046783 15.110112 110.43075989 14.27513123 110.43106079 C11.61299704 110.42967437 8.95114742 110.41414574 6.2890625 110.3984375 C4.43675896 110.39470492 2.58445344 110.39185911 0.73214722 110.38986206 C-4.13075257 110.38224488 -8.99353191 110.36261287 -13.85638428 110.3404541 C-18.82351045 110.31995437 -23.79065617 110.31085153 -28.7578125 110.30078125 C-38.49484444 110.27936515 -48.23178718 110.24525237 -57.96875 110.203125 C-58.03843359 99.79751638 -58.09165427 89.3919638 -58.12418652 78.98616886 C-58.13980481 74.15369961 -58.16097264 69.32139068 -58.19506836 64.48901367 C-58.2277991 59.82058079 -58.24563184 55.15230157 -58.25338173 50.48376274 C-58.2589007 48.70767233 -58.26967767 46.93158979 -58.28594017 45.15556526 C-58.47769046 23.33562015 -58.47769046 23.33562015 -50.96875 14.203125 C-36.19357262 0.83347494 -18.95515117 0.05282882 0 0 Z " fill="#87C3A8" transform="translate(57.96875,114.796875)"/>
<path d="M0 0 C10.53599297 -0.06967922 21.07193062 -0.12290208 31.60810757 -0.15543652 C36.50110991 -0.17105575 41.39395397 -0.19222534 46.28686523 -0.22631836 C51.01365262 -0.25904568 55.74028826 -0.27688114 60.46718025 -0.28463173 C62.26559905 -0.29015131 64.06401006 -0.30092947 65.86236382 -0.31719017 C88.25515583 -0.51151226 88.25515583 -0.51151226 97.15234375 7.92578125 C105.74641239 17.57366804 110.12121888 30.26814905 110.12939453 43.0534668 C110.13202301 44.08849838 110.13202301 44.08849838 110.13470459 45.1444397 C110.13908653 47.41272537 110.13619902 49.68093236 110.1328125 51.94921875 C110.13348636 53.52911901 110.13445707 55.10901916 110.13571167 56.68891907 C110.13718348 59.99322501 110.13504981 63.29750386 110.13037109 66.60180664 C110.12466007 70.84224179 110.12796473 75.08261383 110.13394356 79.32304668 C110.13755115 82.58204121 110.13640991 85.84102067 110.13381577 89.10001564 C110.13314777 90.66416239 110.13397049 92.2283105 110.13629532 93.79245567 C110.13882659 95.97324646 110.13497518 98.15393375 110.12939453 100.3347168 C110.12859894 101.57650192 110.12780334 102.81828705 110.12698364 104.09770203 C110 107 110 107 109 109 C98.92432366 109.11642901 88.84881031 109.20498461 78.77259541 109.25906086 C74.09253803 109.2850297 69.4129447 109.32019179 64.7331543 109.37719727 C60.20731812 109.43197529 55.68192509 109.46151585 51.1557827 109.47438622 C49.43877383 109.48354471 47.72178611 109.50142665 46.00496864 109.52865028 C30.23511335 109.76851112 18.12746297 106.77122055 6.4453125 95.5 C0.82388652 89.37963089 -0.45536792 82.42656714 -0.34057617 74.47265625 C-0.34101425 73.66194168 -0.34145233 72.85122711 -0.34190369 72.01594543 C-0.33983136 69.3645428 -0.31657486 66.71379071 -0.29296875 64.0625 C-0.28736724 62.2130569 -0.28309977 60.36360932 -0.28010559 58.51416016 C-0.26870048 53.66765865 -0.23927095 48.82143071 -0.20599365 43.97503662 C-0.17519896 39.0211558 -0.16158023 34.06723039 -0.14648438 29.11328125 C-0.11439682 19.40873457 -0.06325333 9.70439011 0 0 Z " fill="#018B3A" transform="translate(0,0)"/>
<path d="M0 0 C1.12469444 -0.01226624 1.12469444 -0.01226624 2.27210999 -0.02478027 C4.76896362 -0.04970885 7.26575955 -0.06618119 9.76269531 -0.08056641 C10.61712471 -0.08589008 11.47155411 -0.09121376 12.35187531 -0.09669876 C16.88610437 -0.12347977 21.42030561 -0.14282703 25.95458984 -0.15722656 C30.61137838 -0.17376467 35.26744394 -0.21843501 39.92396164 -0.26959801 C43.52397336 -0.30349856 47.12381962 -0.31482952 50.72397614 -0.32045364 C52.43817837 -0.32711795 54.15237162 -0.34221228 55.86641693 -0.36634445 C69.86184782 -0.55192619 82.12561567 1.18712064 92.84082031 11.19287109 C98.76530737 17.04972702 102.16558066 22.96921596 102.21408081 31.39456177 C102.20329498 32.15485687 102.19250916 32.91515198 102.18139648 33.69848633 C102.1820536 34.9289695 102.1820536 34.9289695 102.182724 36.18431091 C102.18064766 38.87361131 102.15737176 41.56227446 102.13378906 44.25146484 C102.12818899 46.12475748 102.12392083 47.99805453 102.1209259 49.87135315 C102.10950951 54.78527097 102.08007006 59.69891986 102.04681396 64.61273193 C102.01604381 69.63354861 102.00240575 74.65440904 101.98730469 79.67529297 C101.95519718 89.51460339 101.90403978 99.35371481 101.84082031 109.19287109 C91.19178934 109.30906016 80.54291082 109.39773576 69.89337349 109.45193195 C64.94756702 109.47795226 60.00219634 109.51321112 55.05664062 109.57006836 C50.27795035 109.62465926 45.4996775 109.65434846 40.72069931 109.66725731 C38.90352692 109.67644881 37.08637567 109.69439731 35.26938248 109.72152138 C23.72735414 109.88686478 15.0725934 109.61180421 5.96582031 101.69287109 C4.91394531 100.45537109 4.91394531 100.45537109 3.84082031 99.19287109 C3.16019531 98.42974609 2.47957031 97.66662109 1.77832031 96.88037109 C-5.47883088 86.81400008 -8.28047051 75.37647783 -8.28857422 63.08007812 C-8.29032654 62.40766586 -8.29207886 61.7352536 -8.29388428 61.04246521 C-8.29824556 58.84517756 -8.29538719 56.6479719 -8.29199219 54.45068359 C-8.2926664 52.91608668 -8.2936374 51.38148986 -8.29489136 49.84689331 C-8.29636015 46.64450047 -8.29423839 43.44213566 -8.28955078 40.23974609 C-8.28382495 36.12706361 -8.28715558 32.01444598 -8.29312325 27.90176582 C-8.29672635 24.73975123 -8.29559194 21.57775219 -8.29299545 18.41573715 C-8.29232698 16.89821236 -8.29315184 15.38068616 -8.29547501 13.86316299 C-8.29800053 11.75183578 -8.29416376 9.64061603 -8.28857422 7.52929688 C-8.28777863 6.32685333 -8.28698303 5.12440979 -8.28616333 3.88552856 C-8.03849726 -1.3661707 -4.28449791 0.025538 0 0 Z " fill="#018B3A" transform="translate(123.1591796875,115.80712890625)"/>
<path d="M0 0 C19.47 0 38.94 0 59 0 C57.42967554 1.04688297 55.84919078 2.0845843 54.203125 3.0078125 C43.07202151 9.37480369 38.42613512 18.59374839 34.94702148 30.6484375 C33.36648336 37.93553804 33.75430197 45.43135946 33.8046875 52.84765625 C33.80842382 54.47146937 33.81126786 56.09528476 33.81326294 57.71910095 C33.8208507 61.96546804 33.84045671 66.21169542 33.8626709 70.45800781 C33.88323472 74.80206412 33.89228706 79.14614329 33.90234375 83.49023438 C33.92370782 91.99355325 33.95778414 100.49675918 34 109 C42.78921623 109.04659267 51.57838914 109.08200479 60.36770248 109.10362434 C64.45009512 109.11400705 68.5324025 109.12806391 72.61474609 109.15087891 C76.56347731 109.17280599 80.51212715 109.18460994 84.46091461 109.18975449 C85.9581963 109.19341495 87.45547415 109.20056147 88.95272064 109.21146011 C106.38076807 109.3331336 122.83670953 107.57639217 136 95 C139.02987431 91.19323485 140.66659757 87.6669085 142 83 C142.33 83 142.66 83 143 83 C143 102.14 143 121.28 143 141 C141.95311703 139.42967554 140.9154157 137.84919078 139.9921875 136.203125 C133.69321499 125.1909353 124.73348315 120.91116105 113 117 C110.45971451 116.90908063 107.94749397 116.8739292 105.4074707 116.88647461 C104.63650055 116.88632858 103.8655304 116.88618256 103.07119751 116.8860321 C100.52269681 116.88672881 97.97426918 116.8945099 95.42578125 116.90234375 C93.65886983 116.90420879 91.8919579 116.90563229 90.12504578 116.90663147 C85.47421847 116.91044988 80.82342239 116.92027442 76.17260742 116.93133545 C71.42692487 116.94156409 66.68123727 116.94613221 61.93554688 116.95117188 C52.6236842 116.96189727 43.3118447 116.97896561 34 117 C33.95347088 125.82375778 33.91802692 134.64747272 33.89637566 143.47132683 C33.88597933 147.56947059 33.87189684 151.66752985 33.84912109 155.765625 C33.82724354 159.72731471 33.81540023 163.6889236 33.81024551 167.6506691 C33.80657634 169.15518591 33.79941206 170.65969876 33.78853989 172.16418076 C33.6729634 188.8344939 36.17262187 203.35522049 47.125 216.5625 C51.03512115 219.87760272 55.35777985 221.88170537 60 224 C60 224.33 60 224.66 60 225 C40.53 225 21.06 225 1 225 C3.32865063 223.44756625 5.36259426 222.33616799 7.875 221.1875 C17.22925609 216.53602348 21.8822031 208.14845179 25.203125 198.6484375 C26.72115491 193.60322045 27.12954814 189.03897797 27.14526367 183.76293945 C27.14862228 183.05341125 27.1519809 182.34388306 27.15544128 181.612854 C27.16490133 179.27964506 27.16689137 176.94650815 27.16796875 174.61328125 C27.17118289 172.98854035 27.17454709 171.36379974 27.17805481 169.73905945 C27.18403232 166.34059985 27.18589594 162.94216565 27.18530273 159.54370117 C27.18520076 155.18215288 27.19889556 150.82076608 27.21607494 146.45925617 C27.2271688 143.10761256 27.22922281 139.75600847 27.22869301 136.40434837 C27.22987544 134.7955386 27.23431187 133.18672789 27.24202538 131.57793617 C27.25178012 129.33479916 27.24896626 127.09201923 27.24291992 124.84887695 C27.24434494 123.57156204 27.24576996 122.29424713 27.24723816 120.97822571 C27.313195 117.88240609 27.313195 117.88240609 25 116 C22.31457377 115.69264543 22.31457377 115.69264543 19.13598633 115.74121094 C17.90322464 115.73490662 16.67046295 115.72860229 15.40034485 115.72210693 C14.04423889 115.72569175 12.68813421 115.72979495 11.33203125 115.734375 C9.93592766 115.7330265 8.53982453 115.73108442 7.14372253 115.72857666 C4.20555181 115.72562147 1.26750234 115.72992714 -1.6706543 115.73925781 C-5.39319162 115.75051599 -9.11543616 115.74418363 -12.83796215 115.73211288 C-15.73035265 115.72478681 -18.62267716 115.72723295 -21.51506996 115.73236847 C-23.54139523 115.7343135 -25.5677233 115.72833949 -27.59403992 115.72210693 C-40.75362059 115.78723972 -53.31452173 116.40865992 -65 123 C-65.825 123.45503906 -66.65 123.91007812 -67.5 124.37890625 C-74.27604249 128.46905032 -78.07332363 133.40827189 -80.3125 141 C-80.539375 141.99 -80.76625 142.98 -81 144 C-81.33 144 -81.66 144 -82 144 C-82 123.87 -82 103.74 -82 83 C-80.44107761 85.33838358 -79.45790441 87.2198495 -78.375 89.75 C-73.75411588 99.00875678 -64.58529277 103.41222723 -55.34005737 107.04525757 C-51.52953552 108.13448044 -47.99413689 108.30701787 -44.06689453 108.31884766 C-43.2954863 108.32889328 -42.52407806 108.3389389 -41.72929382 108.34928894 C-39.19714048 108.38000852 -36.66509232 108.39712458 -34.1328125 108.4140625 C-32.37017926 108.4327832 -30.6075549 108.45235729 -28.84494019 108.4727478 C-24.21888472 108.52397974 -19.59280023 108.5636532 -14.96661377 108.60089111 C-10.24069084 108.6409869 -5.51488772 108.69205378 -0.7890625 108.7421875 C8.47387405 108.83884091 17.7368784 108.92327946 27 109 C27.09320325 99.70656917 27.16401772 90.41330238 27.20724869 81.11950397 C27.22801075 76.80272576 27.25611657 72.48627028 27.30175781 68.16967773 C27.34562656 63.9939837 27.36922237 59.81859758 27.37950897 55.64269066 C27.38682754 54.05967559 27.4011161 52.47667493 27.42292023 50.89379311 C27.62939123 35.26522109 24.55790177 19.4154929 13.67578125 7.46484375 C10.78273749 4.93595935 7.50438359 3.49681162 4 2 C2.68 1.34 1.36 0.68 0 0 Z " fill="#FAFCFA" transform="translate(82,0)"/>
<path d="M0 0 C23.76 0 47.52 0 72 0 C69.80883832 1.09558084 67.61576346 2.18747493 65.4140625 3.26171875 C59.33062669 6.3715984 54.71475757 9.20135403 51 15 C50.5153125 15.721875 50.030625 16.44375 49.53125 17.1875 C44.47410219 26.17798499 45.56037123 36.02531167 46 46 C44.80503906 45.96519531 43.61007813 45.93039063 42.37890625 45.89453125 C30.31961965 45.4181988 30.31961965 45.4181988 19 49 C18.23429687 49.39058594 17.46859375 49.78117187 16.6796875 50.18359375 C7.85874001 55.32186844 4.12721066 63.61836803 1 73 C0.67 73 0.34 73 0 73 C0 48.91 0 24.82 0 0 Z " fill="#FDFEFD" transform="translate(0,0)"/>
<path d="M0 0 C0.33 0 0.66 0 1 0 C1 24.42 1 48.84 1 74 C-23.75 74 -48.5 74 -74 74 C-74 73.67 -74 73.34 -74 73 C-72.081875 72.690625 -72.081875 72.690625 -70.125 72.375 C-60.92732374 70.29250726 -53.20867952 64.86137573 -48 57 C-44.59896156 50.84649324 -44.63652079 45.4978857 -44.8125 38.5625 C-44.82603516 37.54478516 -44.83957031 36.52707031 -44.85351562 35.47851562 C-44.8886339 32.98511786 -44.93781441 30.49284488 -45 28 C-43.91203125 28.04640625 -42.8240625 28.0928125 -41.703125 28.140625 C-30.52824916 28.47349907 -19.65808417 27.83896733 -10.5234375 20.53125 C-4.6821967 14.66005412 -1.89227852 7.95088957 0 0 Z " fill="#FDFEFD" transform="translate(224,151)"/>
<path d="M0 0 C24.75 0 49.5 0 75 0 C75 23.76 75 47.52 75 72 C73.100377 69.1505655 71.83769117 66.42802507 70.4375 63.3125 C66.68692988 55.77485786 61.64468702 50.17424912 53.6875 47.0625 C46.73702042 45.05981944 40.74307089 44.56985376 33.5625 45.5625 C32.386875 45.706875 31.21125 45.85125 30 46 C29.505 45.505 29.505 45.505 29 45 C29.02328434 43.02294777 29.05284988 41.04573821 29.11669922 39.06958008 C29.40999911 28.94264291 28.70729883 20.39951681 22.25 12.125 C15.9097398 5.51595071 8.80107167 2.98994819 0 1 C0 0.67 0 0.34 0 0 Z " fill="#FEFEFE" transform="translate(150,0)"/>
<path d="M0 0 C1.70566536 2.55849805 2.91059919 4.9114392 4.1875 7.6875 C9.37389446 18.03013546 16.05724354 23.35241451 27 27 C28.48123547 27.0806622 29.96582204 27.10761193 31.44921875 27.09765625 C32.29677734 27.09443359 33.14433594 27.09121094 34.01757812 27.08789062 C35.33918945 27.07532227 35.33918945 27.07532227 36.6875 27.0625 C37.58017578 27.05798828 38.47285156 27.05347656 39.39257812 27.04882812 C41.59511987 27.03704983 43.79752599 27.02060164 46 27 C45.95359375 28.18335938 45.9071875 29.36671875 45.859375 30.5859375 C45.54091519 42.16440123 46.04207487 50.90522843 54 60 C54 60.66 54 61.32 54 62 C54.58007812 62.2784375 55.16015625 62.556875 55.7578125 62.84375 C57.9007789 63.94883372 59.86285929 65.17473463 61.875 66.5 C65.14349586 68.574944 68.24370987 69.96702021 72 71 C72 71.33 72 71.66 72 72 C48.24 72 24.48 72 0 72 C0 48.24 0 24.48 0 0 Z " fill="#FEFEFE" transform="translate(0,153)"/>
<path d="M0 0 C0 3 0 3 -1.53125 4.82421875 C-2.1809375 5.43910156 -2.830625 6.05398437 -3.5 6.6875 C-4.1496875 7.31011719 -4.799375 7.93273437 -5.46875 8.57421875 C-5.9740625 9.04472656 -6.479375 9.51523438 -7 10 C-7.66 9.67 -8.32 9.34 -9 9 C-7.87895467 7.68412059 -6.75303035 6.37239647 -5.625 5.0625 C-4.99851562 4.33160156 -4.37203125 3.60070312 -3.7265625 2.84765625 C-2 1 -2 1 0 0 Z " fill="#148F40" transform="translate(59,6)"/>
</svg>
